<svg width="139" height="145" viewBox="0 0 139 145" fill="none" xmlns="http://www.w3.org/2000/svg">
<path d="M27.0781 144H22.4492V130.652H18.2656V126.867H31.25V130.652H27.0781V144ZM44.2109 144L43.3672 140.789H37.8008L36.9336 144H31.8477L37.4375 126.797H43.6133L49.2734 144H44.2109ZM42.4062 136.992L41.668 134.18C41.4961 133.555 41.2852 132.746 41.0352 131.754C40.793 130.762 40.6328 130.051 40.5547 129.621C40.4844 130.02 40.3438 130.676 40.1328 131.59C39.9297 132.504 39.4727 134.305 38.7617 136.992H42.4062ZM67.4492 144H61.3789L55.1211 131.93H55.0156C55.1641 133.828 55.2383 135.277 55.2383 136.277V144H51.1367V126.867H57.1836L63.418 138.773H63.4883C63.3789 137.047 63.3242 135.66 63.3242 134.613V126.867H67.4492V144ZM85.6953 135.07C85.6953 137.93 84.9062 140.133 83.3281 141.68C81.7578 143.227 79.5469 144 76.6953 144H71.1523V126.867H77.082C79.832 126.867 81.9531 127.57 83.4453 128.977C84.9453 130.383 85.6953 132.414 85.6953 135.07ZM80.8906 135.234C80.8906 133.664 80.5781 132.5 79.9531 131.742C79.3359 130.984 78.3945 130.605 77.1289 130.605H75.7812V140.203H76.8125C78.2188 140.203 79.25 139.797 79.9062 138.984C80.5625 138.164 80.8906 136.914 80.8906 135.234ZM103.344 126.867V137.18C103.344 139.422 102.707 141.16 101.434 142.395C100.168 143.621 98.3398 144.234 95.9492 144.234C93.6133 144.234 91.8164 143.637 90.5586 142.441C89.3086 141.246 88.6836 139.527 88.6836 137.285V126.867H93.3359V136.922C93.3359 138.133 93.5625 139.012 94.0156 139.559C94.4688 140.105 95.1367 140.379 96.0195 140.379C96.9648 140.379 97.6484 140.109 98.0703 139.57C98.5 139.023 98.7148 138.133 98.7148 136.898V126.867H103.344ZM111.57 137.766V144H106.941V126.867H112.555C117.211 126.867 119.539 128.555 119.539 131.93C119.539 133.914 118.57 135.449 116.633 136.535L121.625 144H116.375L112.742 137.766H111.57ZM111.57 134.285H112.438C114.055 134.285 114.863 133.57 114.863 132.141C114.863 130.961 114.07 130.371 112.484 130.371H111.57V134.285Z" fill="#FCF9F9"/>
<path d="M120.058 46.6702V52.6063C120.058 81.1801 104.042 94.1595 84.2884 94.1595H73.0897C72.6038 96.8664 72.3653 99.8197 72.3653 103.064H66.4038C66.4038 99.0183 66.7496 95.3468 67.4352 91.9869C66.7496 88.1462 66.4038 82.9342 66.4038 76.351C66.4038 59.9583 79.7487 46.6702 96.2115 46.6702C102.173 46.6702 108.135 49.6383 120.058 46.6702ZM96.2115 52.6063C83.0425 52.6063 72.3653 63.238 72.3653 76.351C72.3653 77.4255 72.3743 78.4613 72.3952 79.4556C76.133 73.5848 81.6087 68.9456 88.7715 64.8705L91.7284 70.0231C83.2183 74.867 77.5728 80.3698 74.6784 88.2234H84.2884C102.218 88.2234 113.712 76.4312 114.087 53.758C109.998 54.1527 106.197 53.9004 101.508 53.2C98.0804 52.6865 97.4068 52.6063 96.2115 52.6063Z" fill="white"/>
<path d="M17.9423 46.6702V52.6063C17.9423 81.1801 33.958 94.1595 53.7116 94.1595H64.9103C65.3962 96.8664 65.6347 99.8197 65.6347 103.064H71.5962C71.5962 99.0183 71.2504 95.3468 70.5648 91.9869C71.2504 88.1462 71.5962 82.9342 71.5962 76.351C71.5962 59.9583 58.2513 46.6702 41.7885 46.6702C35.827 46.6702 29.8654 49.6383 17.9423 46.6702ZM41.7885 52.6063C54.9575 52.6063 65.6347 63.238 65.6347 76.351C65.6347 77.4255 65.6257 78.4613 65.6048 79.4556C61.867 73.5848 56.3913 68.9456 49.2285 64.8705L46.2716 70.0231C54.7817 74.867 60.4272 80.3698 63.3216 88.2234H53.7116C35.7822 88.2234 24.2884 76.4312 23.9128 53.758C28.0024 54.1527 31.8029 53.9004 36.4917 53.2C39.9196 52.6865 40.5932 52.6063 41.7885 52.6063Z" fill="white"/>
<path d="M85.1145 16.5253L85.1146 16.5255C88.987 22.9349 91.0272 30.2367 91.0231 37.673C91.0231 38.15 91.0146 38.6344 90.9979 39.1129L90.898 39.1094L90.9979 39.1129C90.7712 45.61 88.2179 51.0831 83.6106 54.9336L83.6102 54.9339C81.1783 56.9478 78.33 58.4287 75.2587 59.2762L75.1321 59.3112V59.1798V54.5023V54.4321L75.1981 54.4082C81.0576 52.2921 85.9707 47.2759 86.2607 38.9559C86.2757 38.5295 86.2834 38.098 86.2834 37.6733C86.27 31.3844 84.6203 25.2011 81.4881 19.7005C78.3659 14.2173 73.8719 9.59056 68.4231 6.24919C62.9742 9.59049 58.4801 14.2172 55.3578 19.7004C52.2255 25.201 50.5757 31.3843 50.5623 37.6733C50.5623 38.098 50.5699 38.5295 50.5849 38.9557L50.5849 38.9558C50.9457 49.3018 58.4575 54.5458 66.0532 55.4449V32.2808V32.1808H66.1532H70.6935H70.7935V32.2808V67.6383V67.7383H70.6935H66.1538H66.0538V67.6383V60.0965C61.2224 59.6536 56.738 57.8611 53.2356 54.9339C48.6283 51.0834 46.075 45.6102 45.8483 39.113L45.9482 39.1095L45.8483 39.113C45.8316 38.6345 45.8231 38.1501 45.8231 37.6732C45.8201 30.3515 47.7979 23.1583 51.5573 16.8175C55.3166 10.4767 60.7248 5.21204 67.2374 1.55289L85.1145 16.5253ZM85.1145 16.5253C81.3527 10.3203 76.0124 5.16386 69.6088 1.55292L69.6088 1.55289L68.4722 0.912864L68.4231 0.885236L68.374 0.912864L67.2375 1.55284L85.1145 16.5253Z" fill="white" stroke="white" stroke-width="0.2"/>
</svg>
